<?xml version="1.0" standalone="no"?>
<!DOCTYPE svg PUBLIC "-//W3C//DTD SVG 20010904//EN"
 "http://www.w3.org/TR/2001/REC-SVG-20010904/DTD/svg10.dtd">
<svg version="1.0" xmlns="http://www.w3.org/2000/svg"
 width="500.000000pt" height="500.000000pt" viewBox="0 0 500.000000 500.000000"
 preserveAspectRatio="xMidYMid meet">

<g transform="translate(0.000000,500.000000) scale(0.100000,-0.100000)"
fill="#000000" stroke="none">
<path d="M2282 3573 c-69 -51 -87 -69 -72 -71 12 -2 45 16 82 44 35 26 68 51
74 56 6 4 43 -16 92 -53 45 -33 88 -59 97 -57 10 2 -17 29 -75 73 -50 39 -94
71 -98 73 -4 1 -49 -28 -100 -65z"/>
<path d="M2508 3406 c-114 -64 -211 -116 -216 -116 -5 0 -40 18 -78 39 -52 29
-100 46 -194 66 -69 15 -129 28 -135 28 -5 0 -77 -38 -160 -85 -82 -47 -240
-136 -350 -198 -110 -62 -258 -146 -330 -189 l-130 -76 93 -3 94 -3 296 168
c396 223 488 273 500 273 6 0 149 -82 319 -182 438 -259 455 -268 483 -268 31
1 221 28 226 32 1 2 -120 78 -271 168 -212 127 -272 167 -262 176 6 7 85 51
174 99 143 77 164 85 180 73 11 -7 120 -92 242 -188 388 -303 515 -402 537
-416 17 -12 72 -14 280 -12 l258 3 -234 171 c-315 228 -489 353 -642 458
l-127 87 -173 5 -173 6 -207 -116z"/>
<path d="M1790 2920 l0 -60 75 0 75 0 0 60 0 60 -75 0 -75 0 0 -60z"/>
<path d="M1972 2923 l3 -58 69 -3 c38 -2 73 1 78 6 5 5 6 32 2 61 l-7 51 -74
0 -74 0 3 -57z"/>
<path d="M3000 2766 l0 -103 43 -7 c23 -3 52 -9 65 -12 22 -6 22 -6 22 110 l0
116 -65 0 -65 0 0 -104z"/>
<path d="M3170 2756 c0 -79 4 -117 13 -123 15 -13 116 -37 123 -30 3 3 3 64
-1 136 l-8 131 -63 0 -64 0 0 -114z"/>
<path d="M1230 2666 l0 -164 60 26 60 27 0 137 0 138 -60 0 -60 0 0 -164z"/>
<path d="M1380 2699 l0 -130 23 7 c82 26 92 31 91 53 0 11 -1 62 -2 111 l-2
90 -55 0 -55 0 0 -131z"/>
<path d="M1790 2800 l0 -30 75 0 75 0 0 30 0 30 -75 0 -75 0 0 -30z"/>
<path d="M1970 2800 l0 -30 75 0 75 0 0 30 0 30 -75 0 -75 0 0 -30z"/>
<path d="M2440 2777 c-90 -10 -93 -11 -50 -18 25 -4 82 -8 128 -8 76 -1 82 1
82 19 0 23 -8 23 -160 7z"/>
<path d="M2100 2678 c-343 -32 -750 -170 -1018 -344 -150 -97 -352 -263 -232
-190 74 45 149 81 276 135 66 28 140 61 165 75 73 41 266 115 394 151 245 70
517 98 800 84 263 -13 375 -31 745 -124 268 -67 329 -76 523 -82 195 -6 334 7
404 37 49 21 128 75 97 66 -69 -20 -205 -36 -311 -36 -195 0 -392 31 -758 120
-263 64 -398 90 -550 105 -153 16 -386 17 -535 3z"/>
<path d="M1760 2369 c-290 -22 -625 -135 -876 -296 -92 -59 -144 -97 -144
-106 0 -2 44 -7 98 -11 54 -4 150 -17 213 -30 l114 -24 65 28 c204 87 424 133
697 146 230 11 462 -16 883 -101 364 -74 450 -86 645 -92 204 -6 315 5 439 44
69 21 196 77 196 86 0 1 -35 -1 -77 -5 -119 -10 -425 -9 -548 2 -252 24 -457
69 -702 156 -458 161 -559 190 -717 204 -114 10 -139 10 -286 -1z"/>
<path d="M3200 1650 c0 -133 1 -140 20 -140 19 0 20 7 20 140 0 133 -1 140
-20 140 -19 0 -20 -7 -20 -140z"/>
<path d="M1597 1773 c-4 -3 -7 -64 -7 -135 l0 -128 85 0 c78 0 85 2 85 20 0
18 -7 20 -65 20 l-65 0 0 40 0 40 55 0 c48 0 55 2 55 20 0 18 -7 20 -55 20
l-55 0 0 35 0 35 65 0 c58 0 65 2 65 20 0 18 -7 20 -78 20 -43 0 -82 -3 -85
-7z"/>
<path d="M2467 1773 c-4 -3 -7 -65 -7 -136 l0 -129 80 4 c74 3 82 5 111 35 26
26 33 42 37 85 7 95 -49 146 -164 147 -28 1 -54 -2 -57 -6z m155 -63 c28 -28
30 -36 25 -78 -7 -60 -32 -82 -98 -82 l-49 0 0 95 0 95 46 0 c37 0 51 -5 76
-30z"/>
<path d="M1843 1695 c-50 -35 -50 -135 0 -170 26 -18 78 -20 96 -2 11 10 14
10 18 0 3 -7 13 -13 24 -13 17 0 19 8 19 100 0 93 -1 100 -20 100 -11 0 -20
-5 -20 -10 0 -7 -6 -7 -19 0 -28 15 -73 12 -98 -5z m95 -31 c16 -11 22 -25 22
-54 0 -29 -6 -43 -22 -54 -32 -23 -54 -20 -77 10 -27 34 -27 64 -1 92 24 26
47 28 78 6z"/>
<path d="M2066 1691 c-30 -33 -17 -63 39 -92 28 -14 50 -32 50 -40 0 -18 -51
-24 -71 -8 -12 10 -17 10 -27 0 -18 -18 18 -41 63 -41 44 0 70 24 70 64 0 24
-7 31 -50 49 -34 14 -50 27 -50 39 0 21 49 25 68 6 9 -9 15 -9 25 1 10 10 8
15 -7 27 -29 21 -89 18 -110 -5z"/>
<path d="M2236 1653 c71 -161 68 -149 50 -193 -15 -38 -15 -40 3 -40 14 0 31
30 75 139 31 76 56 141 56 145 0 3 -9 6 -19 6 -15 0 -25 -18 -46 -75 -15 -41
-31 -73 -35 -70 -4 3 -20 36 -36 75 -24 57 -33 70 -51 70 l-23 0 26 -57z"/>
<path d="M2763 1692 c-53 -40 -48 -138 7 -167 36 -19 90 -19 115 -2 24 18 11
41 -15 27 -10 -5 -27 -10 -38 -10 -21 0 -72 36 -72 51 0 5 34 9 75 9 l75 0 0
30 c0 67 -91 105 -147 62z m105 -39 l14 -23 -61 0 c-58 0 -61 1 -51 19 19 37
74 39 98 4z"/>
<path d="M2975 1685 c-20 -19 -25 -34 -25 -75 0 -41 5 -56 25 -75 26 -27 72
-33 108 -14 16 9 22 9 25 0 2 -6 10 -11 18 -11 11 0 14 20 14 100 0 80 -3 100
-14 100 -8 0 -16 -6 -19 -12 -4 -10 -7 -10 -18 0 -23 22 -87 15 -114 -13z
m114 -31 c12 -15 21 -34 21 -44 0 -27 -39 -70 -64 -70 -51 0 -79 70 -46 113
27 35 62 35 89 1z"/>
<path d="M3300 1690 c-36 -36 -19 -71 45 -93 43 -15 58 -43 29 -54 -9 -3 -29
-2 -44 4 -38 14 -62 -1 -35 -21 43 -33 135 -8 135 37 0 24 -30 55 -59 62 -33
7 -56 29 -46 45 8 13 41 13 65 0 26 -14 39 9 15 27 -28 20 -82 16 -105 -7z"/>
<path d="M2606 1377 c-20 -15 -15 -57 8 -57 7 0 21 -7 32 -15 16 -12 17 -16 5
-24 -10 -6 -22 -6 -34 1 -22 12 -38 1 -17 -12 24 -16 59 -11 69 8 12 23 3 38
-33 51 -34 13 -29 37 8 34 14 -1 26 2 26 8 0 5 -4 9 -9 9 -5 0 -15 2 -23 5 -7
3 -22 -1 -32 -8z"/>
<path d="M1740 1320 c0 -33 4 -60 10 -60 6 0 10 11 10 25 0 14 6 25 13 25 8 0
19 -11 25 -25 6 -14 16 -25 22 -25 14 0 13 13 -2 28 -10 10 -10 17 0 33 22 35
6 59 -39 59 l-39 0 0 -60z m67 34 c6 -16 -12 -34 -34 -34 -7 0 -13 11 -13 25
0 18 5 25 20 25 11 0 23 -7 27 -16z"/>
<path d="M1900 1320 l0 -60 40 0 c22 0 40 5 40 10 0 6 -13 10 -30 10 -41 0
-43 37 -2 43 l27 4 -27 2 c-21 1 -28 6 -28 20 0 15 8 21 33 24 28 3 26 4 -10
5 l-43 2 0 -60z"/>
<path d="M2060 1324 c-11 -31 -18 -59 -16 -62 3 -3 8 3 12 12 8 21 62 22 70 1
4 -8 10 -15 14 -15 5 0 -1 27 -13 60 -12 33 -27 60 -34 60 -6 0 -21 -25 -33
-56z m46 -11 c-2 -3 -11 -3 -19 -1 -11 2 -12 9 -5 28 l10 25 9 -24 c5 -13 7
-26 5 -28z"/>
<path d="M2210 1320 l0 -60 40 0 c22 0 40 5 40 10 0 6 -13 10 -30 10 -29 0
-30 1 -30 50 0 28 -4 50 -10 50 -6 0 -10 -27 -10 -60z"/>
<path d="M2450 1320 l0 -60 35 0 c19 0 35 5 35 10 0 6 -14 10 -31 10 -23 0
-30 4 -27 17 2 9 14 20 28 24 l25 6 -25 4 c-35 6 -32 32 5 40 29 6 29 7 -7 8
l-38 1 0 -60z"/>
<path d="M2748 1373 c19 -4 22 -11 24 -61 l1 -57 6 54 c5 42 11 56 26 62 13 5
4 7 -30 7 -27 0 -40 -3 -27 -5z"/>
<path d="M2916 1372 c-16 -26 -44 -112 -37 -112 5 0 11 7 15 15 3 9 18 15 36
15 20 0 30 -5 30 -15 0 -8 5 -15 10 -15 14 0 13 11 -11 69 -21 49 -32 60 -43
43z m18 -60 c-21 -5 -24 0 -17 27 l6 23 13 -23 c11 -20 10 -25 -2 -27z"/>
<path d="M3048 1373 c20 -4 22 -10 22 -59 0 -30 5 -54 10 -54 6 0 10 24 10 54
0 44 4 55 18 59 9 3 -5 5 -33 4 -27 0 -40 -2 -27 -4z"/>
<path d="M3190 1320 l0 -60 41 0 c24 0 38 4 34 10 -3 6 -17 10 -31 10 -36 0
-33 37 4 43 l27 4 -27 2 c-21 1 -28 6 -28 20 0 15 8 21 33 24 28 3 26 4 -10 5
l-43 2 0 -60z"/>
</g>
</svg>
